<svg xmlns="http://www.w3.org/2000/svg" viewBox="0 0 500 500"><g id="freepik--background-simple--inject-20"><path d="M376.91,152.43c-15.85-23.38-29-52.62-54.63-67.07-36.45-20.55-71.49,7.39-101,27.11-15.5,10.35-32,21.13-50.78,24.13-26.86,4.3-54.14-7.59-80.77-.31-45,12.3-57.31,67-42.18,105.87,21,54,68,112,77,156s51,75,123,55,68-66,132-76,95-56,84-114c-5.41-28.55-22.95-49.5-45.76-66.32C401.47,184.84,388.25,169.15,376.91,152.43Z" style="fill:#7E57C2"></path><g style="opacity:0.7000000000000001"><path d="M376.91,152.43c-15.85-23.38-29-52.62-54.63-67.07-36.45-20.55-71.49,7.39-101,27.11-15.5,10.35-32,21.13-50.78,24.13-26.86,4.3-54.14-7.59-80.77-.31-45,12.3-57.31,67-42.18,105.87,21,54,68,112,77,156s51,75,123,55,68-66,132-76,95-56,84-114c-5.41-28.55-22.95-49.5-45.76-66.32C401.47,184.84,388.25,169.15,376.91,152.43Z" style="fill:#fff"></path></g></g><g id="freepik--Document--inject-20"><path d="M234.9,432.74,115.8,215.31,33.51,243.16l26.69,51.9-1.69-2.9-5,1.66a3.64,3.64,0,0,0-2.08,5.12l13.16,25.59a8.66,8.66,0,0,0,9.14,4.59l3.65-.61,64.1,124.65Z" style="fill:#2e353a"></path><path d="M311.84,121.43h0a5.51,5.51,0,0,1-7.47-2.18l-3.05-5.57L115.8,215.31,234.9,432.74,420.43,331.12,355.59,212.75a5.5,5.5,0,0,1,2.18-7.46h0a5.5,5.5,0,0,0,2.18-7.47L319.3,123.61A5.5,5.5,0,0,0,311.84,121.43Z" style="fill:#7E57C2;stroke:#2e353a;stroke-linecap:round;stroke-linejoin:round"></path><rect x="201.71" y="150.12" width="159.96" height="214.25" transform="translate(-70.01 109.49) rotate(-19.62)" style="fill:#fff;stroke:#2e353a;stroke-linecap:round;stroke-linejoin:round"></rect><rect x="179" y="154.05" width="159.96" height="78.93" transform="translate(-49.93 98.17) rotate(-19.62)" style="fill:#fff;stroke:#2e353a;stroke-linecap:round;stroke-linejoin:round"></rect><circle cx="296.48" cy="185.5" r="24.13" transform="translate(-53.24 187.77) rotate(-32.41)" style="fill:#2e353a;stroke:#2e353a;stroke-linecap:round;stroke-linejoin:round"></circle><path d="M304.58,208.23a24.08,24.08,0,0,0,14.57-14.47c-4.19-9.38-14.43-14.27-23.65-11s-14.05,13.56-11.36,23.47A24.09,24.09,0,0,0,304.58,208.23Z" style="fill:#fff;stroke:#2e353a;stroke-linecap:round;stroke-linejoin:round"></path><circle cx="294.86" cy="180.96" r="12.23" transform="translate(-45.92 240.6) rotate(-41.46)" style="fill:#fff;stroke:#2e353a;stroke-linecap:round;stroke-linejoin:round"></circle><rect x="192.53" y="195.35" width="55.98" height="6.43" transform="translate(-53.86 85.55) rotate(-19.62)" style="fill:#fff;stroke:#2e353a;stroke-linecap:round;stroke-linejoin:round"></rect><rect x="197.72" y="209.9" width="55.98" height="6.43" transform="translate(-58.44 88.14) rotate(-19.62)" style="fill:#fff;stroke:#2e353a;stroke-linecap:round;stroke-linejoin:round"></rect><rect x="201.5" y="222.11" width="55.98" height="3.22" transform="translate(-61.79 90.02) rotate(-19.62)" style="fill:#2e353a"></rect><rect x="204.09" y="229.39" width="55.98" height="3.22" transform="translate(-64.08 91.31) rotate(-19.62)" style="fill:#2e353a"></rect><rect x="217.26" y="266.36" width="55.98" height="3.22" transform="translate(-75.72 97.88) rotate(-19.62)" style="fill:#2e353a"></rect><rect x="219.64" y="273.03" width="55.98" height="3.22" transform="translate(-77.83 99.07) rotate(-19.62)" style="fill:#2e353a"></rect><rect x="222.02" y="279.7" width="55.98" height="3.22" transform="translate(-79.93 100.25) rotate(-19.62)" style="fill:#2e353a"></rect><rect x="288.79" y="240.87" width="55.98" height="3.22" transform="translate(-63.02 120.41) rotate(-19.62)" style="fill:#2e353a"></rect><rect x="291.17" y="247.54" width="55.98" height="3.22" transform="translate(-65.12 121.6) rotate(-19.62)" style="fill:#2e353a"></rect><rect x="293.54" y="254.21" width="55.98" height="3.22" transform="translate(-67.22 122.78) rotate(-19.62)" style="fill:#2e353a"></rect><line x1="214.98" y1="270.22" x2="342.27" y2="224.86" style="fill:none;stroke:#2e353a;stroke-linecap:round;stroke-linejoin:round"></line><rect x="229.58" y="300.91" width="55.98" height="3.22" transform="translate(-86.61 104.02) rotate(-19.62)" style="fill:#2e353a"></rect><rect x="231.95" y="307.58" width="55.98" height="3.22" transform="translate(-88.71 105.21) rotate(-19.62)" style="fill:#2e353a"></rect><rect x="234.33" y="314.25" width="55.98" height="3.22" transform="translate(-90.81 106.39) rotate(-19.62)" style="fill:#2e353a"></rect><rect x="301.1" y="275.42" width="55.98" height="3.22" transform="translate(-73.9 126.55) rotate(-19.62)" style="fill:#2e353a"></rect><rect x="303.48" y="282.09" width="55.98" height="3.22" transform="translate(-76 127.74) rotate(-19.62)" style="fill:#2e353a"></rect><rect x="305.85" y="288.76" width="55.98" height="3.22" transform="translate(-78.1 128.92) rotate(-19.62)" style="fill:#2e353a"></rect><line x1="227.29" y1="304.77" x2="354.58" y2="259.41" style="fill:none;stroke:#2e353a;stroke-linecap:round;stroke-linejoin:round"></line><rect x="241.11" y="314.1" width="132.56" height="32.17" transform="translate(-93.01 122.35) rotate(-19.62)" style="fill:#2e353a;stroke:#2e353a;stroke-linecap:round;stroke-linejoin:round"></rect><rect x="190.07" y="164.82" width="159.96" height="214.25" transform="translate(-85.31 128.41) rotate(-23.21)" style="fill:#fff;stroke:#2e353a;stroke-linecap:round;stroke-linejoin:round"></rect><rect x="163.41" y="170.3" width="159.96" height="78.93" transform="translate(-62.96 112.87) rotate(-23.21)" style="fill:#fff;stroke:#2e353a;stroke-linecap:round;stroke-linejoin:round"></rect><circle cx="280.31" cy="199.42" r="24.13" transform="translate(-37.95 330.01) rotate(-57.74)" style="fill:#2e353a;stroke:#2e353a;stroke-linecap:round;stroke-linejoin:round"></circle><path d="M289.82,221.6a24.08,24.08,0,0,0,13.63-15.36c-4.76-9.09-15.29-13.34-24.28-9.48S266,211.17,269.3,220.89A24.1,24.1,0,0,0,289.82,221.6Z" style="fill:#fff;stroke:#2e353a;stroke-linecap:round;stroke-linejoin:round"></path><circle cx="278.41" cy="194.98" r="12.23" transform="translate(-58.17 242.33) rotate(-43.01)" style="fill:#fff;stroke:#2e353a;stroke-linecap:round;stroke-linejoin:round"></circle><rect x="177.33" y="214" width="55.98" height="6.43" transform="translate(-68.98 98.48) rotate(-23.21)" style="fill:#fff;stroke:#2e353a;stroke-linecap:round;stroke-linejoin:round"></rect><rect x="183.42" y="228.19" width="55.98" height="6.43" transform="translate(-74.08 102.03) rotate(-23.21)" style="fill:#fff;stroke:#2e353a;stroke-linecap:round;stroke-linejoin:round"></rect><rect x="187.86" y="240.15" width="55.98" height="3.22" transform="translate(-77.8 104.61) rotate(-23.21)" style="fill:#2e353a"></rect><rect x="190.9" y="247.25" width="55.98" height="3.22" transform="translate(-80.35 106.38) rotate(-23.21)" style="fill:#2e353a"></rect><rect x="206.37" y="283.32" width="55.98" height="3.22" transform="translate(-93.31 115.4) rotate(-23.21)" style="fill:#2e353a"></rect><rect x="209.16" y="289.83" width="55.98" height="3.22" transform="translate(-95.65 117.02) rotate(-23.21)" style="fill:#2e353a"></rect><rect x="211.94" y="296.34" width="55.98" height="3.22" transform="translate(-97.99 118.65) rotate(-23.21)" style="fill:#2e353a"></rect><rect x="276.15" y="253.41" width="55.98" height="3.22" transform="translate(-75.88 140.48) rotate(-23.21)" style="fill:#2e353a"></rect><rect x="278.94" y="259.91" width="55.98" height="3.22" transform="translate(-78.22 142.1) rotate(-23.21)" style="fill:#2e353a"></rect><rect x="281.73" y="266.42" width="55.98" height="3.22" transform="translate(-80.55 143.73) rotate(-23.21)" style="fill:#2e353a"></rect><line x1="204.28" y1="289.08" x2="328.48" y2="235.83" style="fill:none;stroke:#2e353a;stroke-linecap:round;stroke-linejoin:round"></line><rect x="220.82" y="317.04" width="55.98" height="3.22" transform="translate(-105.43 123.82) rotate(-23.21)" style="fill:#2e353a"></rect><rect x="223.61" y="323.54" width="55.98" height="3.22" transform="translate(-107.76 125.44) rotate(-23.21)" style="fill:#2e353a"></rect><rect x="226.4" y="330.05" width="55.98" height="3.22" transform="translate(-110.1 127.07) rotate(-23.21)" style="fill:#2e353a"></rect><rect x="290.61" y="287.12" width="55.98" height="3.22" transform="translate(-87.99 148.9) rotate(-23.21)" style="fill:#2e353a"></rect><rect x="293.4" y="293.62" width="55.98" height="3.22" transform="translate(-90.33 150.52) rotate(-23.21)" style="fill:#2e353a"></rect><rect x="296.18" y="300.13" width="55.98" height="3.22" transform="translate(-92.67 152.15) rotate(-23.21)" style="fill:#2e353a"></rect><line x1="218.73" y1="322.79" x2="342.93" y2="269.54" style="fill:none;stroke:#2e353a;stroke-linecap:round;stroke-linejoin:round"></line><rect x="233.99" y="327.05" width="132.56" height="32.17" transform="translate(-110.92 146.08) rotate(-23.21)" style="fill:#2e353a;stroke:#2e353a;stroke-linecap:round;stroke-linejoin:round"></rect><rect x="179" y="166.89" width="159.96" height="214.25" transform="translate(-107.45 185.22) rotate(-32.99)" style="fill:#fff;stroke:#2e353a;stroke-linecap:round;stroke-linejoin:round"></rect><rect x="142.16" y="177.81" width="159.96" height="78.93" transform="translate(-82.49 156.01) rotate(-32.99)" style="fill:#fff;stroke:#2e353a;stroke-linecap:round;stroke-linejoin:round"></rect><circle cx="256.76" cy="200.8" r="24.13" transform="translate(-28.9 43.81) rotate(-9.23)" style="fill:#2e353a;stroke:#2e353a;stroke-linecap:round;stroke-linejoin:round"></circle><path d="M269.9,221a24.09,24.09,0,0,0,10.83-17.45c-6.24-8.16-17.34-10.54-25.54-5.22s-10.54,16.44-5.63,25.46A24.06,24.06,0,0,0,269.9,221Z" style="fill:#7E57C2;stroke:#2e353a;stroke-linecap:round;stroke-linejoin:round"></path><circle cx="254.14" cy="196.75" r="12.23" transform="translate(-66.91 211.82) rotate(-40.43)" style="fill:#fff;stroke:#2e353a;stroke-linecap:round;stroke-linejoin:round"></circle><rect x="157.9" y="227.87" width="55.98" height="6.43" transform="translate(-95.86 138.5) rotate(-32.99)" style="fill:#fff;stroke:#2e353a;stroke-linecap:round;stroke-linejoin:round"></rect><rect x="166.31" y="240.82" width="55.98" height="6.43" transform="translate(-101.56 145.17) rotate(-32.99)" style="fill:#fff;stroke:#2e353a;stroke-linecap:round;stroke-linejoin:round"></rect><rect x="172.45" y="251.87" width="55.98" height="3.22" transform="matrix(0.84, -0.54, 0.54, 0.84, -105.71, 150.03)" style="fill:#2e353a"></rect><rect x="176.65" y="258.35" width="55.98" height="3.22" transform="translate(-108.56 153.36) rotate(-32.99)" style="fill:#2e353a"></rect><rect x="198.03" y="291.27" width="55.98" height="3.22" transform="translate(-123.04 170.31) rotate(-32.99)" style="fill:#2e353a"></rect><rect x="201.88" y="297.21" width="55.98" height="3.22" transform="translate(-125.65 173.37) rotate(-32.99)" style="fill:#2e353a"></rect><rect x="205.73" y="303.15" width="55.98" height="3.22" transform="translate(-128.26 176.43) rotate(-32.99)" style="fill:#2e353a"></rect><rect x="261.71" y="249.92" width="55.98" height="3.22" transform="translate(-90.25 198.32) rotate(-32.99)" style="fill:#2e353a"></rect><rect x="265.57" y="255.86" width="55.98" height="3.22" transform="translate(-92.86 201.38) rotate(-32.99)" style="fill:#2e353a"></rect><rect x="269.42" y="261.8" width="55.98" height="3.22" transform="translate(-95.47 204.44) rotate(-32.99)" style="fill:#2e353a"></rect><line x1="197.08" y1="302.08" x2="310.42" y2="228.49" style="fill:none;stroke:#2e353a;stroke-linecap:round;stroke-linejoin:round"></line><rect x="218" y="322.04" width="55.98" height="3.22" transform="translate(-136.57 186.15) rotate(-32.99)" style="fill:#2e353a"></rect><rect x="221.85" y="327.97" width="55.98" height="3.22" transform="translate(-139.18 189.21) rotate(-32.99)" style="fill:#2e353a"></rect><rect x="225.71" y="333.91" width="55.98" height="3.22" transform="translate(-141.79 192.26) rotate(-32.99)" style="fill:#2e353a"></rect><rect x="281.68" y="280.69" width="55.98" height="3.22" transform="translate(-103.78 214.16) rotate(-32.99)" style="fill:#2e353a"></rect><rect x="285.54" y="286.62" width="55.98" height="3.22" transform="translate(-106.39 217.22) rotate(-32.99)" style="fill:#2e353a"></rect><rect x="289.39" y="292.56" width="55.98" height="3.22" transform="translate(-109.01 220.28) rotate(-32.99)" style="fill:#2e353a"></rect><line x1="217.05" y1="332.84" x2="330.39" y2="259.26" style="fill:none;stroke:#2e353a;stroke-linecap:round;stroke-linejoin:round"></line><rect x="234.59" y="322.95" width="132.56" height="32.17" transform="translate(-136.1 218.52) rotate(-32.99)" style="fill:#2e353a;stroke:#2e353a;stroke-linecap:round;stroke-linejoin:round"></rect><path d="M115.8,215.31,44.68,160.25,87,239.64c1,1.92-1.65,2.28-4.35.58h0c-2.73-1.71-5.42-1.33-4.35.61l21.95,39.9a5,5,0,0,0,1.35,1.45l10.72,8.08a4.79,4.79,0,0,1,1.37,1.49l44.41,84.35,76.81,56.64Z" style="fill:#7E57C2;stroke:#2e353a;stroke-linecap:round;stroke-linejoin:round"></path><path d="M115.8,215.31,44.68,160.25,87,239.64c1,1.92-1.65,2.28-4.35.58h0c-2.73-1.71-5.42-1.33-4.35.61l21.95,39.9a5,5,0,0,0,1.35,1.45l10.72,8.08a4.79,4.79,0,0,1,1.37,1.49l44.41,84.35,76.81,56.64Z" style="fill:#2e353a;stroke:#2e353a;stroke-linecap:round;stroke-linejoin:round;opacity:0.25"></path></g></svg>